<svg width="32" height="32" viewBox="0 0 32 32" fill="none" xmlns="http://www.w3.org/2000/svg">
<path d="M32 16C32 24.8366 24.8366 32 16 32C7.16344 32 0 24.8366 0 16C0 7.16344 7.16344 0 16 0C24.8366 0 32 7.16344 32 16Z" fill="#00995D"/>
<path d="M13.258 20.434L17.11 16.726C18.82 15.088 19.18 13.99 19.18 12.766C19.18 10.606 17.488 9.256 14.86 9.256C12.898 9.256 11.224 9.958 10.252 11.164L11.476 12.226C12.25 11.29 13.348 10.858 14.698 10.858C16.462 10.858 17.38 11.65 17.38 12.946C17.38 13.738 17.128 14.53 15.796 15.826L10.666 20.776V22H19.72V20.434H13.258Z" fill="white"/>
</svg>
