<svg width="32" height="32" viewBox="0 0 32 32" fill="none" xmlns="http://www.w3.org/2000/svg">
<path d="M32 16C32 24.8366 24.8366 32 16 32C7.16344 32 0 24.8366 0 16C0 7.16344 7.16344 0 16 0C24.8366 0 32 7.16344 32 16Z" fill="#00995D"/>
<path d="M14.716 22.144C13.828 22.144 12.964 22.006 12.124 21.73C11.296 21.454 10.618 21.082 10.09 20.614L10.918 19.192C11.338 19.588 11.884 19.912 12.556 20.164C13.228 20.416 13.948 20.542 14.716 20.542C15.652 20.542 16.378 20.344 16.894 19.948C17.422 19.54 17.686 18.994 17.686 18.31C17.686 17.65 17.434 17.122 16.93 16.726C16.438 16.318 15.652 16.114 14.572 16.114H13.564V14.854L17.308 10.246L17.56 10.966H10.666V9.4H18.982V10.624L15.256 15.214L14.32 14.656H14.914C16.438 14.656 17.578 14.998 18.334 15.682C19.102 16.366 19.486 17.236 19.486 18.292C19.486 19 19.312 19.648 18.964 20.236C18.616 20.824 18.088 21.292 17.38 21.64C16.684 21.976 15.796 22.144 14.716 22.144Z" fill="white"/>
</svg>
