<svg width="16" height="16" viewBox="0 0 16 16" fill="none" xmlns="http://www.w3.org/2000/svg">
<g clip-path="url(#clip0_4019_24444)">
<path d="M4.66683 3.33329V1.33329C4.66683 1.15648 4.73707 0.986912 4.86209 0.861888C4.98712 0.736864 5.15669 0.666626 5.3335 0.666626H10.6668C10.8436 0.666626 11.0132 0.736864 11.1382 0.861888C11.2633 0.986912 11.3335 1.15648 11.3335 1.33329V3.33329H14.0002C14.177 3.33329 14.3465 3.40353 14.4716 3.52855C14.5966 3.65358 14.6668 3.82315 14.6668 3.99996V13.3333C14.6668 13.5101 14.5966 13.6797 14.4716 13.8047C14.3465 13.9297 14.177 14 14.0002 14H2.00016C1.82335 14 1.65378 13.9297 1.52876 13.8047C1.40373 13.6797 1.3335 13.5101 1.3335 13.3333V3.99996C1.3335 3.82315 1.40373 3.65358 1.52876 3.52855C1.65378 3.40353 1.82335 3.33329 2.00016 3.33329H4.66683ZM6.00016 8.66663H2.66683V12.6666H13.3335V8.66663H10.0002V10.6666H6.00016V8.66663ZM13.3335 4.66663H2.66683V7.33329H6.00016V5.99996H10.0002V7.33329H13.3335V4.66663ZM7.3335 7.33329V9.33329H8.66683V7.33329H7.3335ZM6.00016 1.99996V3.33329H10.0002V1.99996H6.00016Z" fill="#00995D"/>
</g>
<defs>
<clipPath id="clip0_4019_24444">
<rect width="16" height="16" fill="white"/>
</clipPath>
</defs>
</svg>
