<svg width="36" height="30" viewBox="0 0 36 30" fill="none" xmlns="http://www.w3.org/2000/svg">
<g filter="url(#filter0_d_5627_1227)">
<rect x="2" width="32" height="24" rx="8" fill="white"/>
<path fill-rule="evenodd" clip-rule="evenodd" d="M20.6668 14.6667C20.6668 15.0334 20.3668 15.3334 20.0002 15.3334C19.6335 15.3334 19.3335 15.0334 19.3335 14.6667V12C19.3335 11.6334 19.6335 11.3334 20.0002 11.3334C20.3668 11.3334 20.6668 11.6334 20.6668 12V14.6667ZM16.6668 6.88537C16.6668 6.78204 16.8095 6.66671 17.0002 6.66671H19.0002C19.1908 6.66671 19.3335 6.78204 19.3335 6.88537V8.00004H16.6668V6.88537ZM16.6668 14.6667C16.6668 15.0334 16.3668 15.3334 16.0002 15.3334C15.6335 15.3334 15.3335 15.0334 15.3335 14.6667V12C15.3335 11.6334 15.6335 11.3334 16.0002 11.3334C16.3668 11.3334 16.6668 11.6334 16.6668 12V14.6667ZM24.0002 8.00004H23.3335H20.6668V6.88537C20.6668 6.02937 19.9195 5.33337 19.0002 5.33337H17.0002C16.0808 5.33337 15.3335 6.02937 15.3335 6.88537V8.00004H12.6668H12.0002C11.6335 8.00004 11.3335 8.30004 11.3335 8.66671C11.3335 9.03337 11.6335 9.33337 12.0002 9.33337H12.6668V16.6667C12.6668 17.7694 13.5642 18.6667 14.6668 18.6667H21.3335C22.4362 18.6667 23.3335 17.7694 23.3335 16.6667V9.33337H24.0002C24.3668 9.33337 24.6668 9.03337 24.6668 8.66671C24.6668 8.30004 24.3668 8.00004 24.0002 8.00004Z" fill="#EB5757"/>
<rect x="2.5" y="0.5" width="31" height="23" rx="7.5" stroke="#EB5757"/>
</g>
<defs>
<filter id="filter0_d_5627_1227" x="0" y="0" width="36" height="30" filterUnits="userSpaceOnUse" color-interpolation-filters="sRGB">
<feFlood flood-opacity="0" result="BackgroundImageFix"/>
<feColorMatrix in="SourceAlpha" type="matrix" values="0 0 0 0 0 0 0 0 0 0 0 0 0 0 0 0 0 0 127 0" result="hardAlpha"/>
<feOffset dy="4"/>
<feGaussianBlur stdDeviation="1"/>
<feColorMatrix type="matrix" values="0 0 0 0 0 0 0 0 0 0 0 0 0 0 0 0 0 0 0.15 0"/>
<feBlend mode="normal" in2="BackgroundImageFix" result="effect1_dropShadow_5627_1227"/>
<feBlend mode="normal" in="SourceGraphic" in2="effect1_dropShadow_5627_1227" result="shape"/>
</filter>
</defs>
</svg>
