<svg width="322" height="128" viewBox="0 0 322 128" fill="none" xmlns="http://www.w3.org/2000/svg">
<path d="M156.16 16.2834C157.813 16.2834 159.9 18.2401 162.465 22.1098C169.378 30.3711 173.553 35.5888 175.031 37.7193H175.248C176.422 36.5454 181.944 29.7189 191.858 17.2835C192.336 16.8487 193.206 16.5008 194.467 16.2834C197.032 16.8922 198.336 18.0661 198.336 19.7184V20.9359C198.336 21.762 195.902 25.023 191.075 30.6755L180.336 44.2414C192.336 58.6769 198.38 66.2426 198.38 66.8948V68.1122C198.38 70.1123 197.076 71.3298 194.51 71.7646H194.336C192.771 71.7646 190.988 70.1993 189.032 67.1122L175.292 50.2852C164.465 63.7642 158.813 70.721 158.247 71.1124C157.595 71.5037 156.9 71.7211 156.204 71.7211H156.03C153.856 71.7211 152.595 70.2862 152.16 67.46C152.16 66.4165 154.726 62.938 159.856 57.1551L170.161 43.9805L152.508 21.9359L152.117 20.2837C152.682 17.5879 154.03 16.2834 156.16 16.2834Z" fill="white"/>
<path d="M3.15231 17.8921C4.89153 17.8921 6.19595 20.2835 7.06556 25.0229L17.3704 56.6767H19.5879C27.3275 31.9363 31.3712 19.3704 31.719 18.8921C32.4147 18.3269 33.1539 18.0225 33.9365 17.8921C35.5018 17.8921 36.6758 19.8052 37.3715 23.588L48.0677 56.6767H50.2852C57.7204 32.8494 61.764 20.3705 62.3293 19.1095C63.1119 18.2834 63.7641 17.8921 64.3294 17.8921C66.1991 18.2399 67.1556 19.0661 67.1556 20.3705L51.2852 69.7643C50.5895 70.4165 49.8939 70.7644 49.2416 70.7644H49.0677C47.3285 70.7644 46.0241 68.4599 45.111 63.8945C38.5889 44.2413 35.3714 33.7625 35.3714 32.3711H32.6321L20.588 69.6339C20.0227 70.3731 19.3705 70.7209 18.5444 70.7209H18.3705C17.1096 70.7209 16.1965 69.8078 15.6312 68.0251L0.5 20.5444C0.891325 18.7617 1.76093 17.8921 3.15231 17.8921Z" fill="white"/>
<path d="M109.462 17.0225C119.811 17.0225 127.854 21.9358 133.594 31.8058C135.55 35.6321 136.507 39.8062 136.507 44.3282V45.2848C136.159 47.1979 135.333 48.1545 133.985 48.1545H88.6785C90.722 55.1549 94.6353 60.2421 100.418 63.3727C103.766 64.6771 106.897 65.2858 109.853 65.2858C113.288 65.2858 117.028 64.2423 121.158 62.1987H121.941C123.55 62.5466 124.376 63.3292 124.376 64.5467V65.1554C124.376 67.7207 119.854 69.5904 110.81 70.7644H109.506C99.853 70.7644 92.1569 66.2424 86.287 57.1985C83.9826 52.9808 82.8086 48.5458 82.8086 43.8499C82.8086 34.0233 87.461 26.1968 96.7658 20.3705C101.244 18.1095 105.462 17.0225 109.462 17.0225ZM88.2871 42.8064H130.855C130.855 38.7627 129.072 34.3277 125.55 29.5014C120.68 24.9359 115.897 22.6749 111.114 22.6749H108.853C101.766 22.6749 95.9397 26.1099 91.3743 33.0233C89.7655 35.806 88.7654 39.0671 88.2871 42.8064Z" fill="white"/>
<path d="M240.556 17.0225C250.904 17.0225 258.948 21.9358 264.688 31.8058C266.644 35.6321 267.601 39.8062 267.601 44.3282V45.2848C267.253 47.1979 266.427 48.1545 265.079 48.1545H219.772C221.816 55.1549 225.729 60.2421 231.512 63.3727C234.86 64.6771 237.991 65.2858 240.947 65.2858C244.382 65.2858 248.121 64.2423 252.252 62.1987H253.035C254.644 62.5466 255.47 63.3292 255.47 64.5467V65.1554C255.47 67.7207 250.948 69.5904 241.904 70.7644H240.599C230.99 70.7644 223.251 66.2424 217.381 57.1985C215.076 52.9808 213.902 48.5458 213.902 43.8499C213.902 34.0233 218.555 26.1968 227.86 20.3705C232.338 18.1095 236.599 17.0225 240.556 17.0225ZM219.381 42.8064H261.948C261.948 38.7627 260.166 34.3277 256.644 29.5014C251.774 24.9359 246.991 22.6749 242.208 22.6749H239.947C232.86 22.6749 227.033 26.1099 222.468 33.0233C220.903 35.806 219.859 39.0671 219.381 42.8064Z" fill="white"/>
<path d="M285.819 16.6748C287.645 17.1531 288.558 17.8488 288.558 18.8054V26.4579C295.906 19.9359 302.863 16.6313 309.385 16.6313C312.907 16.6313 316.603 17.4575 320.473 19.1097C321.168 19.8489 321.516 20.5446 321.516 21.2403V21.3707C321.212 23.1534 320.386 24.023 318.994 24.023C315.212 22.8056 312.298 22.1969 310.211 22.1969H308.994C300.298 22.1969 293.906 26.7188 289.862 35.7193C288.993 38.1542 288.558 40.85 288.558 43.8936V68.3732C288.558 69.6776 287.645 70.4602 285.862 70.7211H285.732C284.427 70.7211 283.558 69.7645 283.21 67.8514V20.1533C283.471 17.8488 284.34 16.6748 285.819 16.6748Z" fill="white"/>
<path d="M183.162 8.28301C183.162 12.5876 179.683 16.066 175.379 16.066C171.074 16.066 167.596 12.5876 167.596 8.28301C167.596 3.97844 171.074 0.5 175.379 0.5C179.683 0.5 183.162 3.97844 183.162 8.28301Z" fill="white"/>
<path d="M112.554 127.812C112.073 127.812 111.68 127.66 111.376 127.356C111.072 127.052 110.92 126.659 110.92 126.178V108.432C110.945 106.456 111.414 104.682 112.326 103.112C113.263 101.516 114.517 100.262 116.088 99.3495C117.659 98.4122 119.432 97.9435 121.408 97.9435C123.435 97.9435 125.233 98.4122 126.804 99.3495C128.4 100.262 129.654 101.516 130.566 103.112C131.503 104.708 131.972 106.519 131.972 108.546C131.972 110.547 131.529 112.346 130.642 113.942C129.781 115.538 128.59 116.804 127.07 117.742C125.55 118.654 123.827 119.11 121.902 119.11C120.281 119.11 118.799 118.768 117.456 118.084C116.113 117.374 115.011 116.45 114.15 115.31V126.178C114.15 126.659 113.998 127.052 113.694 127.356C113.415 127.66 113.035 127.812 112.554 127.812ZM121.408 116.184C122.827 116.184 124.093 115.854 125.208 115.196C126.323 114.537 127.197 113.625 127.83 112.46C128.489 111.294 128.818 109.99 128.818 108.546C128.818 107.076 128.489 105.772 127.83 104.632C127.197 103.466 126.323 102.554 125.208 101.896C124.093 101.212 122.827 100.87 121.408 100.87C120.04 100.87 118.786 101.212 117.646 101.896C116.531 102.554 115.657 103.466 115.024 104.632C114.391 105.772 114.074 107.076 114.074 108.546C114.074 109.99 114.391 111.294 115.024 112.46C115.657 113.625 116.531 114.537 117.646 115.196C118.786 115.854 120.04 116.184 121.408 116.184Z" fill="white"/>
<path d="M167.922 119.11C166.326 119.11 164.781 118.856 163.286 118.35C161.817 117.818 160.639 117.07 159.752 116.108C159.448 115.778 159.321 115.398 159.372 114.968C159.423 114.537 159.625 114.17 159.98 113.866C160.385 113.562 160.791 113.448 161.196 113.524C161.627 113.574 161.994 113.752 162.298 114.056C162.83 114.689 163.59 115.208 164.578 115.614C165.566 115.994 166.655 116.184 167.846 116.184C169.594 116.184 170.873 115.892 171.684 115.31C172.495 114.702 172.913 113.967 172.938 113.106C172.963 112.244 172.558 111.522 171.722 110.94C170.911 110.357 169.518 109.901 167.542 109.572C164.983 109.141 163.109 108.419 161.918 107.406C160.753 106.392 160.17 105.176 160.17 103.758C160.17 102.466 160.525 101.389 161.234 100.528C161.943 99.6662 162.868 99.0202 164.008 98.5895C165.173 98.1589 166.427 97.9435 167.77 97.9435C169.467 97.9435 170.937 98.2349 172.178 98.8175C173.419 99.3749 174.42 100.135 175.18 101.098C175.484 101.452 175.611 101.832 175.56 102.238C175.509 102.618 175.307 102.934 174.952 103.188C174.597 103.39 174.192 103.454 173.736 103.378C173.305 103.302 172.938 103.099 172.634 102.77C172.001 102.086 171.279 101.592 170.468 101.288C169.657 100.984 168.733 100.832 167.694 100.832C166.402 100.832 165.338 101.085 164.502 101.592C163.691 102.098 163.286 102.757 163.286 103.568C163.286 104.125 163.425 104.606 163.704 105.012C164.008 105.417 164.54 105.784 165.3 106.114C166.06 106.418 167.124 106.696 168.492 106.95C170.392 107.279 171.887 107.735 172.976 108.318C174.091 108.9 174.889 109.597 175.37 110.408C175.851 111.193 176.092 112.067 176.092 113.03C176.092 114.195 175.75 115.234 175.066 116.146C174.407 117.058 173.457 117.78 172.216 118.312C171 118.844 169.569 119.11 167.922 119.11Z" fill="white"/>
<path d="M206.037 118.92C205.556 118.92 205.163 118.768 204.859 118.464C204.555 118.16 204.403 117.767 204.403 117.286V99.7675C204.403 99.2609 204.555 98.8682 204.859 98.5895C205.163 98.2855 205.556 98.1335 206.037 98.1335C206.519 98.1335 206.899 98.2855 207.177 98.5895C207.481 98.8682 207.633 99.2609 207.633 99.7675V117.286C207.633 117.767 207.481 118.16 207.177 118.464C206.899 118.768 206.519 118.92 206.037 118.92ZM205.999 94.3715C205.391 94.3715 204.872 94.1562 204.441 93.7255C204.011 93.2949 203.795 92.7629 203.795 92.1295C203.795 91.4962 204.011 90.9769 204.441 90.5715C204.897 90.1409 205.429 89.9255 206.037 89.9255C206.62 89.9255 207.127 90.1409 207.557 90.5715C208.013 90.9769 208.241 91.4962 208.241 92.1295C208.241 92.7629 208.013 93.2949 207.557 93.7255C207.127 94.1562 206.607 94.3715 205.999 94.3715Z" fill="white"/>
</svg>
