<svg width="48" height="48" viewBox="0 0 48 48" fill="none" xmlns="http://www.w3.org/2000/svg">
<path d="M48 24C48 37.2548 37.2548 48 24 48C10.7452 48 0 37.2548 0 24C0 10.7452 10.7452 0 24 0C37.2548 0 48 10.7452 48 24Z" fill="#00995D"/>
<path d="M22.6667 10.6667C28.0907 10.6667 32.568 14.7147 33.2453 19.9533L36.2453 24.672C36.4427 24.9827 36.4027 25.4453 35.9453 25.6427L33.3333 26.76V30.6667C33.3333 32.14 32.14 33.3333 30.6667 33.3333H28.0013L28 37.3333H16V32.408C16 30.8347 15.4187 29.3453 14.3413 28.0013C12.876 26.1747 12 23.856 12 21.3333C12 15.4427 16.776 10.6667 22.6667 10.6667ZM22.6667 13.3333C18.248 13.3333 14.6667 16.9147 14.6667 21.3333C14.6667 23.18 15.2907 24.924 16.4213 26.3333C17.88 28.152 18.6667 30.2227 18.6667 32.408V34.6667H25.3333L25.336 30.6667H30.6667V25.0027L32.7333 24.1173L30.676 20.884L30.6 20.2947C30.088 16.3347 26.6987 13.3333 22.6667 13.3333ZM21.96 18.3507L22.6667 19.0573L23.3733 18.3507C24.2853 17.4387 25.7627 17.4387 26.6733 18.3507C27.5853 19.2613 27.5853 20.7387 26.6733 21.6493L22.6667 25.6573L18.66 21.6493C17.748 20.7387 17.748 19.2613 18.66 18.3507C19.5707 17.4387 21.048 17.4387 21.96 18.3507Z" fill="white"/>
</svg>
