<svg width="48" height="48" viewBox="0 0 48 48" fill="none" xmlns="http://www.w3.org/2000/svg">
<path d="M48 24C48 37.2548 37.2548 48 24 48C10.7452 48 0 37.2548 0 24C0 10.7452 10.7452 0 24 0C37.2548 0 48 10.7452 48 24Z" fill="#2F80ED"/>
<path d="M26.4373 10.248L37.752 21.5627L35.8653 23.448L34.9227 22.5053L29.2667 28.1613L28.324 32.876L26.4373 34.7613L20.7813 29.104L14.1813 35.704L12.296 33.8187L18.896 27.2187L13.2387 21.5627L15.124 19.676L19.84 18.7333L25.496 13.0773L24.5533 12.1347L26.4387 10.248H26.4373ZM27.3813 14.9627L21.1533 21.1893L17.3907 21.9427L26.0573 30.6093L26.8093 26.8467L33.0373 20.62L27.3813 14.9627Z" fill="white"/>
</svg>
