<svg width="36" height="30" viewBox="0 0 36 30" fill="none" xmlns="http://www.w3.org/2000/svg">
<g filter="url(#filter0_d_5627_1220)">
<rect x="2" width="32" height="24" rx="8" fill="white"/>
<g clip-path="url(#clip0_5627_1220)">
<path d="M21.3333 5.33333H23.3333C23.5101 5.33333 23.6797 5.40357 23.8047 5.5286C23.9298 5.65362 24 5.82319 24 6V18C24 18.1768 23.9298 18.3464 23.8047 18.4714C23.6797 18.5964 23.5101 18.6667 23.3333 18.6667H12.6667C12.4899 18.6667 12.3203 18.5964 12.1953 18.4714C12.0702 18.3464 12 18.1768 12 18V6C12 5.82319 12.0702 5.65362 12.1953 5.5286C12.3203 5.40357 12.4899 5.33333 12.6667 5.33333H14.6667V4H16V5.33333H20V4H21.3333V5.33333ZM14.6667 9.33333V10.6667H21.3333V9.33333H14.6667ZM14.6667 12V13.3333H21.3333V12H14.6667Z" fill="#017849"/>
</g>
<rect x="2.5" y="0.5" width="31" height="23" rx="7.5" stroke="#017849"/>
</g>
<defs>
<filter id="filter0_d_5627_1220" x="0" y="0" width="36" height="30" filterUnits="userSpaceOnUse" color-interpolation-filters="sRGB">
<feFlood flood-opacity="0" result="BackgroundImageFix"/>
<feColorMatrix in="SourceAlpha" type="matrix" values="0 0 0 0 0 0 0 0 0 0 0 0 0 0 0 0 0 0 127 0" result="hardAlpha"/>
<feOffset dy="4"/>
<feGaussianBlur stdDeviation="1"/>
<feColorMatrix type="matrix" values="0 0 0 0 0 0 0 0 0 0 0 0 0 0 0 0 0 0 0.15 0"/>
<feBlend mode="normal" in2="BackgroundImageFix" result="effect1_dropShadow_5627_1220"/>
<feBlend mode="normal" in="SourceGraphic" in2="effect1_dropShadow_5627_1220" result="shape"/>
</filter>
<clipPath id="clip0_5627_1220">
<rect width="16" height="16" fill="white" transform="translate(10 4)"/>
</clipPath>
</defs>
</svg>
