<svg width="16" height="16" viewBox="0 0 16 16" fill="none" xmlns="http://www.w3.org/2000/svg">
<g clip-path="url(#clip0_4019_24443)">
<path d="M2.6665 14.6666C2.6665 13.2521 3.22841 11.8956 4.2286 10.8954C5.2288 9.8952 6.58535 9.33329 7.99984 9.33329C9.41432 9.33329 10.7709 9.8952 11.7711 10.8954C12.7713 11.8956 13.3332 13.2521 13.3332 14.6666H11.9998C11.9998 13.6058 11.5784 12.5883 10.8283 11.8382C10.0781 11.0881 9.0607 10.6666 7.99984 10.6666C6.93897 10.6666 5.92156 11.0881 5.17141 11.8382C4.42126 12.5883 3.99984 13.6058 3.99984 14.6666H2.6665ZM7.99984 8.66663C5.78984 8.66663 3.99984 6.87663 3.99984 4.66663C3.99984 2.45663 5.78984 0.666626 7.99984 0.666626C10.2098 0.666626 11.9998 2.45663 11.9998 4.66663C11.9998 6.87663 10.2098 8.66663 7.99984 8.66663ZM7.99984 7.33329C9.47317 7.33329 10.6665 6.13996 10.6665 4.66663C10.6665 3.19329 9.47317 1.99996 7.99984 1.99996C6.5265 1.99996 5.33317 3.19329 5.33317 4.66663C5.33317 6.13996 6.5265 7.33329 7.99984 7.33329Z" fill="#00995D"/>
</g>
<defs>
<clipPath id="clip0_4019_24443">
<rect width="16" height="16" fill="white"/>
</clipPath>
</defs>
</svg>
